<svg xmlns="http://www.w3.org/2000/svg" style="width:0; height:0; visibility:hidden;">
    <symbol id="cog" viewBox="0 0 24 24">
       <path d="M12 0q1.242 0 2.121 0.879t0.879 2.121v0.516q0.367 0.125 0.883 0.359l0.359-0.359q0.883-0.883 2.125-0.883 1.234 0 2.117 0.883t0.883 2.117q0 1.242-0.883 2.125l-0.359 0.359q0.234 0.516 0.359 0.883h0.516q1.242 0 2.121 0.879t0.879 2.121-0.879 2.121-2.121 0.879h-0.516q-0.125 0.367-0.359 0.883l0.359 0.359q0.883 0.883 0.883 2.125 0 1.234-0.883 2.117t-2.117 0.883q-1.242 0-2.125-0.883l-0.359-0.359q-0.516 0.234-0.883 0.359v0.516q0 1.242-0.879 2.121t-2.121 0.879-2.121-0.879-0.879-2.121v-0.516q-0.367-0.125-0.883-0.359l-0.359 0.359q-0.883 0.883-2.117 0.883-1.242 0-2.121-0.883t-0.879-2.117q0-1.25 0.875-2.125l0.359-0.359q-0.234-0.516-0.359-0.883h-0.516q-1.242 0-2.121-0.879t-0.879-2.121 0.879-2.121 2.121-0.879h0.516q0.125-0.367 0.359-0.883l-0.359-0.359q-0.875-0.875-0.875-2.125 0-1.234 0.879-2.117t2.121-0.883q1.234 0 2.117 0.883l0.359 0.359q0.516-0.234 0.883-0.359v-0.516q0-1.242 0.879-2.121t2.121-0.879zM12 2q-0.414 0-0.707 0.293t-0.293 0.707v2.070q-1.75 0.25-3.195 1.32l-1.461-1.461q-0.297-0.297-0.703-0.297-0.414 0-0.707 0.293t-0.293 0.707q0 0.422 0.289 0.711l1.461 1.461q-1.070 1.445-1.32 3.195h-2.070q-0.414 0-0.707 0.293t-0.293 0.707 0.293 0.707 0.707 0.293h2.070q0.25 1.75 1.32 3.195l-1.461 1.461q-0.289 0.289-0.289 0.711 0 0.414 0.293 0.707t0.707 0.293q0.406 0 0.703-0.297l1.461-1.461q1.445 1.070 3.195 1.32v2.070q0 0.414 0.293 0.707t0.707 0.293 0.707-0.293 0.293-0.707v-2.070q1.75-0.25 3.195-1.32l1.461 1.461q0.297 0.297 0.711 0.297t0.707-0.293 0.293-0.707-0.297-0.711l-1.461-1.461q1.070-1.445 1.32-3.195h2.070q0.414 0 0.707-0.293t0.293-0.707-0.293-0.707-0.707-0.293h-2.070q-0.25-1.75-1.32-3.195l1.461-1.461q0.297-0.297 0.297-0.711t-0.293-0.707-0.707-0.293-0.711 0.297l-1.461 1.461q-1.445-1.070-3.195-1.32v-2.070q0-0.414-0.293-0.707t-0.707-0.293zM12 8q1.656 0 2.828 1.172t1.172 2.828-1.172 2.828-2.828 1.172-2.828-1.172-1.172-2.828 1.172-2.828 2.828-1.172zM12 10q-0.828 0-1.414 0.586t-0.586 1.414 0.586 1.414 1.414 0.586 1.414-0.586 0.586-1.414-0.586-1.414-1.414-0.586z"/> 
    </symbol>
    <symbol id="cross" viewBox="0 0 24 24">
       <path d="M19 4q0.43 0 0.715 0.285t0.285 0.715q0 0.422-0.289 0.711l-6.297 6.289 6.297 6.289q0.289 0.289 0.289 0.711 0 0.43-0.285 0.715t-0.715 0.285q-0.422 0-0.711-0.289l-6.289-6.297-6.289 6.297q-0.289 0.289-0.711 0.289-0.43 0-0.715-0.285t-0.285-0.715q0-0.422 0.289-0.711l6.297-6.289-6.297-6.289q-0.289-0.289-0.289-0.711 0-0.43 0.285-0.715t0.715-0.285q0.422 0 0.711 0.289l6.289 6.297 6.289-6.297q0.289-0.289 0.711-0.289z"/> 
    </symbol>
    <symbol id="hyperlink" viewBox="0 0 32 32">
       <path fill="#444444" d="M31.467 8.267l-7.733-7.733c-0.711-0.711-1.866-0.711-2.577 0l-7.733 7.733c-0.713 0.711-0.713 1.866 0 2.579l1.288 1.288 7.733-7.733 5.156 5.156-7.733 7.733 1.29 1.29c0.711 0.711 1.866 0.711 2.577 0l7.733-7.733c0.711-0.713 0.711-1.868 0-2.579zM17.29 19.867l-7.733 7.733-5.156-5.156 7.733-7.733-1.29-1.29c-0.711-0.711-1.866-0.711-2.577 0l-7.733 7.733c-0.711 0.713-0.711 1.868 0 2.579l7.733 7.733c0.711 0.711 1.866 0.711 2.577 0l7.733-7.733c0.713-0.711 0.713-1.866 0-2.579l-1.288-1.288zM10.844 21.154c0.713 0.713 1.866 0.713 2.579 0l7.733-7.733c0.711-0.711 0.711-1.864 0-2.575-0.713-0.713-1.866-0.713-2.579 0l-7.733 7.733c-0.711 0.711-0.711 1.864 0 2.575z"/> 
    </symbol>
    <symbol id="pencil" viewBox="0 0 28 32">
       <path fill="#444444" d="M22 2l-4 4 6 6 4-4-6-6zM0 24l0.021 6.018 5.979-0.018 16-16-6-6-16 16zM6 28h-4v-4h2v2h2v2z"/> 
    </symbol>
    <symbol id="plus" viewBox="0 0 32 32">
       <path fill="#444444" d="M31 12h-11v-11c0-0.552-0.447-1-1-1h-6c-0.553 0-1 0.448-1 1v11h-11c-0.553 0-1 0.448-1 1v6c0 0.553 0.447 1 1 1h11v11c0 0.553 0.447 1 1 1h6c0.553 0 1-0.447 1-1v-11h11c0.553 0 1-0.447 1-1v-6c0-0.552-0.447-1-1-1z"/> 
    </symbol>
    <symbol id="trash" viewBox="0 0 32 32">
       <path fill="#444444" d="M18 14h4v10h-4zM30 6h-8v-4c0-1.105-0.895-2-2-2h-8c-1.105 0-2 0.894-2 2v4h-8c-1.105 0-2 0.894-2 2v2h2v20c0 1.105 0.894 2 2 2h24c1.105 0 2-0.895 2-2v-20h2v-2c0-1.106-0.895-2-2-2zM14 4h4v2h-4v-2zM26 28h-20v-18h20v18zM10 14h4v10h-4z"/> 
    </symbol></svg>